<svg width="128" height="128" viewBox="0 0 128 128" fill="none" xmlns="http://www.w3.org/2000/svg">
<circle cx="64" cy="64" r="64" fill="url(#paint0_radial_3968_511)"/>
<path d="M67.0583 55.2912C67.0195 55.0975 67.0048 54.8999 66.9855 54.7033C66.8365 53.1857 65.5567 51.9999 64 51.9999C62.4433 51.9999 61.1635 53.1857 61.0145 54.7033C60.9952 54.8999 60.9805 55.0975 60.9417 55.2912L60.3922 58.0388C60.1547 59.2264 59.2264 60.1547 58.0388 60.3922L55.2913 60.9417C55.0976 60.9804 54.8999 60.9951 54.7033 61.0144C53.1857 61.1634 52 62.4432 52 63.9999C52 65.5567 53.1857 66.8365 54.7033 66.9855C54.8999 67.0048 55.0976 67.0194 55.2913 67.0582L58.0388 67.6077C59.2264 67.8452 60.1547 68.7735 60.3922 69.9611L60.9417 72.7086C60.9805 72.9024 60.9952 73.1 61.0145 73.2966C61.1635 74.8142 62.4433 75.9999 64 75.9999C65.5567 75.9999 66.8365 74.8142 66.9855 73.2966C67.0048 73.1 67.0195 72.9024 67.0583 72.7086L67.6078 69.9611C67.8453 68.7735 68.7736 67.8452 69.9612 67.6077L72.7087 67.0582C72.9024 67.0195 73.1001 67.0048 73.2967 66.9855C74.8143 66.8365 76 65.5567 76 63.9999C76 62.4432 74.8143 61.1634 73.2967 61.0144C73.1001 60.9951 72.9024 60.9804 72.7087 60.9417L69.9612 60.3922C68.7736 60.1547 67.8453 59.2264 67.6078 58.0388L67.0583 55.2912Z" fill="white"/>
<path fill-rule="evenodd" clip-rule="evenodd" d="M66.3458 24.8491C64.879 24.0698 63.121 24.0698 61.6542 24.8491L31.6542 40.7866C30.0209 41.6543 29 43.3527 29 45.2021V78.9202C29 80.6048 29.8483 82.1762 31.2567 83.1005L61.2567 102.788C62.9223 103.881 65.0777 103.881 66.7433 102.788L96.7433 83.1005C98.1517 82.1762 99 80.6048 99 78.9202V45.2021C99 43.3527 97.9791 41.6543 96.3458 40.7866L66.3458 24.8491ZM35.7415 49.6629C35.4083 49.479 35 49.7201 35 50.1007V77.8405C35 78.1774 35.1697 78.4917 35.4513 78.6766L60.2257 94.9348C60.5582 95.153 61.0001 94.9145 61.0001 94.5167V84.9999C61.0001 83.343 62.3432 81.9999 64.0001 81.9999C65.6569 81.9999 67.0001 83.343 67.0001 84.9999V94.5167C67.0001 94.9144 67.4419 95.1529 67.7744 94.9347L92.5487 78.6766C92.8303 78.4917 93 78.1775 93 77.8405V50.1007C93 49.7201 92.5917 49.4791 92.2585 49.6629L81.4493 55.6266C79.9986 56.427 78.1737 55.8998 77.3733 54.4491C76.5729 52.9984 77.1001 51.1735 78.5508 50.3731L89.05 44.5805C89.3978 44.3886 89.3938 43.8875 89.0431 43.7011L64.4692 30.6462C64.1758 30.4904 63.8242 30.4904 63.5308 30.6462L38.957 43.7011C38.6063 43.8874 38.6023 44.3886 38.95 44.5805L49.4493 50.3731C50.9 51.1735 51.4272 52.9984 50.6268 54.4491C49.8264 55.8998 48.0015 56.427 46.5508 55.6266L35.7415 49.6629Z" fill="white"/>
<defs>
<radialGradient id="paint0_radial_3968_511" cx="0" cy="0" r="1" gradientUnits="userSpaceOnUse" gradientTransform="rotate(45) scale(181.019)">
<stop stop-color="#0ECAD4"/>
<stop offset="1" stop-color="#006BD6"/>
</radialGradient>
</defs>
</svg>
