<svg width="128" height="128" viewBox="0 0 128 128" fill="none" xmlns="http://www.w3.org/2000/svg">
<path d="M128 64C128 99.3462 99.3462 128 64 128C28.6538 128 0 99.3462 0 64C0 28.6538 28.6538 0 64 0C99.3462 0 128 28.6538 128 64Z" fill="url(#paint0_radial_7090_160)"/>
<path d="M32 74.0734V89.351C32 89.931 32.23 90.4709 32.63 90.8808L37.11 95.3701C37.52 95.78 38.06 96 38.64 96H53.92C54.52 96 55 95.5201 55 94.9202V79.6426C55 79.0727 54.77 78.5227 54.37 78.1228L49.88 73.6335C49.47 73.2236 48.93 73.0036 48.36 73.0036H33.08C32.48 73.0036 32 73.4835 32 74.0834V74.0734Z" fill="white"/>
<path d="M32 33.0798V48.3574C32 48.9373 32.23 49.4773 32.63 49.8872L78.11 95.3701C78.52 95.78 79.06 96 79.64 96H94.92C95.52 96 96 95.5201 96 94.9202V79.6425C96 79.0726 95.77 78.5227 95.37 78.1228L49.88 32.6299C49.47 32.23 48.93 32 48.36 32H33.08C32.48 32 32 32.4799 32 33.0798Z" fill="white"/>
<path d="M73 33.0798V48.3574C73 48.9373 73.23 49.4773 73.63 49.8872L78.11 54.3765C78.52 54.7864 79.06 55.0064 79.64 55.0064H94.92C95.52 55.0064 96 54.5265 96 53.9266V38.639C96 38.0691 95.77 37.5191 95.37 37.1192L90.88 32.6299C90.47 32.23 89.93 32 89.36 32H74.08C73.48 32 73 32.4799 73 33.0798Z" fill="white"/>
<defs>
<radialGradient id="paint0_radial_7090_160" cx="0" cy="0" r="1" gradientUnits="userSpaceOnUse" gradientTransform="rotate(45) scale(181.019)">
<stop stop-color="#FFC34E"/>
<stop offset="1" stop-color="#FF6119"/>
</radialGradient>
</defs>
</svg>
