<svg width="64" height="64" viewBox="0 0 64 64" fill="none" xmlns="http://www.w3.org/2000/svg">
<path d="M64 32C64 49.6731 49.6731 64 32 64C14.3269 64 0 49.6731 0 32C0 14.3269 14.3269 0 32 0C49.6731 0 64 14.3269 64 32Z" fill="url(#paint0_radial_7376_373)"/>
<path d="M42.9264 26.4203C43.1271 26.2686 42.9778 25.9512 42.7327 26.0072L31.4433 28.5816C30.1199 28.8546 29.1443 30.0823 29.268 31.513C29.3801 32.785 30.3953 33.8353 31.6627 33.987C32.4796 34.0851 33.2311 33.819 33.7889 33.3359L42.9218 26.4203H42.9264Z" fill="#006BD6"/>
<path d="M32.0011 13C20.5577 13 11.2521 22.1492 11.0001 33.5319C10.9954 33.791 11.2078 34.0057 11.4669 34.0057H14.0342C14.2886 34.0057 14.494 33.8003 14.501 33.5459C14.7461 24.091 22.4879 16.501 32.0011 16.501C41.5144 16.501 49.2561 24.091 49.4989 33.5459C49.5059 33.8003 49.7089 34.0057 49.9657 34.0057H52.533C52.7921 34.0057 53.0068 33.7933 52.9998 33.5319C52.7501 22.1492 43.4446 13 32.0011 13Z" fill="#006BD6"/>
<defs>
<radialGradient id="paint0_radial_7376_373" cx="0" cy="0" r="1" gradientUnits="userSpaceOnUse" gradientTransform="rotate(45) scale(90.5097)">
<stop stop-color="#E7FAFB"/>
<stop offset="1" stop-color="#D5E6F8"/>
</radialGradient>
</defs>
</svg>
