<svg width="128" height="128" viewBox="0 0 128 128" fill="none" xmlns="http://www.w3.org/2000/svg">
<circle cx="64" cy="64" r="64" fill="url(#paint0_radial_6199_250)"/>
<path d="M42.425 77.551C42.4251 76.5157 43.2108 75.6636 44.2191 75.5609L44.4248 75.5512L80.3354 75.5512C81.5872 75.5512 82.5894 75.5498 83.2784 75.5498C83.6229 75.5498 83.8896 75.5512 84.0698 75.5512H84.3266C84.3321 75.5512 84.3391 75.5498 84.3391 75.5498L84.3432 75.5512L84.5407 75.5609C84.9987 75.6062 85.4291 75.8086 85.7574 76.1368C86.1325 76.5118 86.343 77.0205 86.343 77.551L86.3416 80.8283L98.669 71.1138L86.3416 62.3026L86.343 64.4999C86.343 65.6045 85.4478 66.4997 84.3432 66.4997L62.3942 66.5011C61.2897 66.5011 60.3931 65.6045 60.3931 64.4999C60.3933 63.3959 61.2889 62.5007 62.3928 62.5001L82.3434 62.5001V58.4149L82.3628 58.1387C82.4518 57.5002 82.8456 56.9362 83.429 56.6361C84.095 56.2936 84.8967 56.3526 85.5061 56.788L103.163 69.4096C103.675 69.7755 103.985 70.3608 104 70.9895C104.014 71.6181 103.731 72.2161 103.238 72.6054L85.582 86.521C84.9803 86.9953 84.1597 87.0833 83.4704 86.7489C82.7815 86.4145 82.3438 85.7164 82.3434 84.9507L82.3421 79.5522C81.7769 79.5522 81.103 79.5508 80.3354 79.5508L44.4248 79.5508L44.2191 79.5411C43.2108 79.4384 42.425 78.5863 42.425 77.551Z" fill="white"/>
<path d="M85.575 51.4495C85.5749 52.4849 84.7892 53.337 83.7809 53.4397L83.5752 53.4493H47.6646C46.4128 53.4493 45.4106 53.4507 44.7216 53.4507C44.3771 53.4507 44.1104 53.4493 43.9302 53.4493H43.6734C43.6679 53.4493 43.6609 53.4507 43.6609 53.4507L43.6568 53.4493L43.4593 53.4397C43.0013 53.3943 42.5709 53.192 42.2426 52.8638C41.8675 52.4887 41.657 51.98 41.657 51.4495L41.6584 48.1723L29.331 57.8867L41.6584 66.6979L41.657 64.5006C41.657 63.9702 41.8675 63.4615 42.2426 63.0864C42.6176 62.7113 43.1263 62.5008 43.6568 62.5008H54.4846L54.6903 62.5105C55.6983 62.6134 56.4844 63.4655 56.4844 64.5006C56.4841 65.536 55.6974 66.3871 54.689 66.4894L54.4846 66.5004H45.6566V70.5856L45.6372 70.8618C45.5482 71.5003 45.1544 72.0644 44.571 72.3644C43.905 72.7069 43.1033 72.6479 42.4939 72.2125L24.837 59.5909C24.3254 59.225 24.0148 58.6398 24 58.011C23.9856 57.3824 24.2686 56.7844 24.7624 56.3951L42.418 42.4795C43.0197 42.0053 43.8403 41.9172 44.5296 42.2516C45.2185 42.586 45.6562 43.2841 45.6566 44.0498L45.6579 49.4484C46.2231 49.4484 46.897 49.4498 47.6646 49.4498H83.5752L83.7809 49.4594C84.7892 49.5621 85.575 50.4142 85.575 51.4495Z" fill="white"/>
<defs>
<radialGradient id="paint0_radial_6199_250" cx="0" cy="0" r="1" gradientUnits="userSpaceOnUse" gradientTransform="rotate(45) scale(181.019)">
<stop stop-color="#0ECAD4"/>
<stop offset="1" stop-color="#006BD6"/>
</radialGradient>
</defs>
</svg>
