<svg width="128" height="128" viewBox="0 0 128 128" fill="none" xmlns="http://www.w3.org/2000/svg">
<circle cx="64" cy="64" r="64" fill="url(#paint0_radial_157_9928)"/>
<path fill-rule="evenodd" clip-rule="evenodd" d="M102.76 67.2501C102.457 65.8886 101.852 64.6783 101.049 63.6543C100.491 62.8863 99.8275 62.223 99.0944 61.6761H99.0827L77.6013 35.086L72.6789 29C66.9536 33.7362 68.2337 44.8958 75.5415 53.926C79.1257 58.3479 83.4778 61.4433 87.6671 62.8863C86.5034 64.0732 85.6888 65.5627 85.3048 67.2035C82.8029 69.5542 80.5221 65.3649 79.8355 63.922C79.7657 63.7707 79.7075 63.6194 79.6377 63.4798C79.6377 63.4681 79.6377 63.4565 79.6377 63.4565C76.4143 56.5792 69.2926 51.1448 63.0669 48.5614C61.2981 47.7817 59.3897 47.3279 57.4231 47.2581C56.0965 47.2115 54.735 47.3279 53.3735 47.6421C53.2222 47.677 53.0709 47.7236 52.9197 47.7701C51.6513 48.1076 50.4643 48.5963 49.3588 49.2014C49.1377 49.3294 48.9166 49.4458 48.6955 49.5738L46.4147 47.7352L42.5397 44.6165C41.888 45.4428 41.5389 46.4319 41.4691 47.4908C41.3527 49.1782 41.9695 51.0168 43.2146 52.5761C43.5288 52.9718 43.8779 53.3441 44.2735 53.6932C43.3891 54.9384 42.656 56.2766 42.1324 57.7079C41.9578 58.185 41.8065 58.6738 41.6669 59.1742H23.5019H22.8502C22.2219 59.1742 21.6749 59.4883 21.3375 59.9771C21.128 60.2796 21 60.6404 21 61.036C21 61.6761 21.3258 62.2346 21.8146 62.5721C22.1055 62.7816 22.4662 62.8979 22.8502 62.8979H38.1991H42.144C42.9586 62.8979 43.7383 63.3634 43.9943 64.1431C44.4132 65.4231 43.4706 66.6217 42.2487 66.6217H28.8781C28.2497 66.6217 27.7028 66.9475 27.3653 67.4246C27.1559 67.7272 27.0278 68.0879 27.0278 68.4836C27.0278 69.1236 27.3537 69.6822 27.8424 70.0196C28.1333 70.2291 28.4941 70.3455 28.8781 70.3455H46.4031C47.2176 70.3455 47.9973 70.8109 48.2533 71.5906C48.6722 72.8706 47.718 74.0692 46.5078 74.0692H37.9199C37.21 74.0692 36.5002 74.4183 36.1744 75.0583C35.8369 75.7333 35.93 76.3849 36.2325 76.8853C36.3838 77.1297 36.5816 77.3392 36.826 77.5021C37.1053 77.6883 37.4428 77.793 37.8035 77.793H48.8817L49.0679 77.9094C49.6381 78.2585 50.2199 78.5959 50.8367 78.8519C53.6295 80.0389 56.7714 80.516 59.9366 79.9342L61.0305 80.9233L74.1451 92.7346L76.0536 93.2117L76.3096 93.2815L89.9944 96.6795C90.7508 96.8657 91.4607 96.2838 91.449 95.5042C91.3908 92.1644 88.5165 88.9526 84.3971 87.9286C82.3723 87.4282 80.3824 87.533 78.6835 88.1264C78.5206 88.1846 78.3693 88.2544 78.218 88.3243C77.7293 88.5221 77.2638 88.7548 76.8449 89.0341C76.6936 89.1272 76.5656 89.2436 76.4259 89.3483C76.3678 89.3948 76.2863 89.4414 76.2281 89.4996C76.8681 88.0683 77.2289 86.5089 77.3569 84.8914C77.6362 81.4237 76.7751 77.6766 74.8666 74.1972C73.6448 71.9746 71.9923 69.8683 69.9443 68.0181C66.3136 64.7482 62.0545 62.8397 57.9468 62.3277C56.0732 62.095 54.223 62.1532 52.4891 62.5023C52.6287 62.4208 52.78 62.3626 52.9313 62.2928C57.074 60.2564 62.0778 60.2564 66.6743 62.1881C68.8388 63.0957 70.9101 64.434 72.7487 66.1795C72.8535 66.2726 72.9465 66.3773 73.0513 66.482C73.284 66.7031 73.5168 66.9242 73.7379 67.1686C73.8659 67.3083 73.9939 67.4595 74.1219 67.5992C74.1917 67.6806 74.2615 67.7505 74.3197 67.8319C74.4942 68.0414 74.6572 68.2392 74.8201 68.4487C76.8449 70.9157 78.3344 73.8714 79.0908 77.1995C79.3468 78.3166 79.4981 79.4454 79.5795 80.5509C81.9301 77.6184 89.0402 76.8504 89.0751 76.8504C91.0534 78.177 93.5436 78.7239 96.0339 78.1421C100.863 77.025 103.877 72.1608 102.772 67.2733L102.76 67.2501ZM100.2 69.1818C100.153 69.2516 100.107 69.3214 100.049 69.3796C99.8857 69.5542 99.6762 69.6705 99.4551 69.7403C99.1177 69.8334 98.7453 69.7985 98.4194 69.5891C97.9656 69.3098 97.7561 68.7978 97.826 68.2974C97.826 68.2974 97.826 68.2857 97.826 68.2741C97.826 68.2508 97.8376 68.2392 97.8376 68.2159C97.8725 68.0646 97.9191 67.925 98.0122 67.7854C98.21 67.4595 98.5358 67.2617 98.8733 67.1919C99.1758 67.1337 99.5133 67.1919 99.7926 67.3664C99.8391 67.4013 99.8857 67.4363 99.9322 67.4712C100.153 67.6574 100.316 67.9134 100.374 68.181C100.444 68.5068 100.398 68.8676 100.212 69.1701L100.2 69.1818Z" fill="white"/>
<defs>
<radialGradient id="paint0_radial_157_9928" cx="0" cy="0" r="1" gradientUnits="userSpaceOnUse" gradientTransform="rotate(45) scale(181.019)">
<stop stop-color="#0ECAD4"/>
<stop offset="1" stop-color="#006BD6"/>
</radialGradient>
</defs>
</svg>
