<svg width="128" height="128" viewBox="0 0 128 128" fill="none" xmlns="http://www.w3.org/2000/svg">
<circle cx="64" cy="64" r="64" fill="url(#paint0_radial_145_9209)"/>
<path d="M47.8445 103C44.8824 102.944 41.976 102.201 39.3575 100.836C37.3332 99.7407 35.6989 98.0508 34.6682 95.9986C33.9439 94.4943 33.8046 92.7858 34.2689 91.1887C34.7332 89.5915 35.7732 88.2172 37.1846 87.3351C38.7446 86.3973 40.5832 86.0444 42.3846 86.3323C44.186 86.6201 45.8203 87.5208 47.0181 88.8951C48.2995 90.6315 48.346 91.9594 49.2931 91.9594C51.1224 91.9872 53.4995 78.8945 54.8181 71.8466C55.3659 68.9402 55.9509 65.9503 56.6381 62.9788C56.7681 62.4217 56.3781 61.8924 55.8116 61.846L50.7881 61.456C50.3702 61.4281 49.9802 61.2331 49.6924 60.9267C49.4045 60.6203 49.2467 60.221 49.2374 59.7939C49.1817 59.1717 49.2652 58.5496 49.4695 57.9553C49.6738 57.3703 49.9988 56.8317 50.4352 56.3768C50.9088 55.996 51.4659 55.7175 52.0602 55.5689C52.6545 55.4203 53.2674 55.3925 53.8709 55.4946L55.3473 55.6339C56.7495 55.7175 57.2788 55.6803 57.9288 55.2346C58.5323 54.8075 58.6809 54.0739 58.8666 53.3589C59.1359 52.2725 59.3959 51.1954 59.6652 50.0347C60.5845 45.4661 61.9587 40.9997 63.7509 36.7005C68.3194 26.6255 76.6301 22.8927 87.1321 26.1427C89.1935 26.7834 91.06 27.9534 92.5457 29.5227C93.2607 30.2934 93.8085 31.1941 94.1706 32.1783C94.5235 33.1626 94.6814 34.2119 94.6256 35.2519C94.5792 36.1619 94.3378 37.0533 93.9385 37.8797C93.5392 38.7062 92.9728 39.4304 92.2857 40.034C91.5521 40.6376 90.6978 41.1019 89.7878 41.3804C88.8778 41.659 87.9121 41.7519 86.965 41.659C85.9157 41.5754 84.885 41.2969 83.9471 40.814C83.0093 40.3404 82.1736 39.6812 81.4865 38.8733C80.5115 37.6197 79.6943 36.2455 79.035 34.7969C78.775 34.2862 78.5243 33.7105 78.255 33.2741C77.5215 31.9091 77.2801 32.8191 77.2801 32.8191L72.6558 54.2411C72.5351 54.7889 72.9344 55.3182 73.5008 55.3553L78.5615 55.6803C78.9329 55.6989 79.295 55.8475 79.5736 56.1075C79.8522 56.3582 80.0379 56.7017 80.1029 57.0732C80.2793 57.6953 80.3072 58.3546 80.1772 58.986C80.0472 59.6174 79.7779 60.2117 79.3786 60.7224C78.9143 61.1403 78.3572 61.4467 77.7536 61.6046C77.1501 61.7624 76.2029 61.7717 75.4044 61.7067L74.5779 61.6231L73.4915 61.5117C71.1887 61.3353 70.873 62.0039 70.3437 64.6967C70.1208 65.8667 69.8887 67.0367 69.6751 68.2067C68.6537 73.4902 67.6137 78.9502 66.1558 84.2244C65.088 88.1708 63.3794 91.9129 61.1045 95.3115C57.6502 100.391 53.0259 103 47.8353 103H47.8445Z" fill="white"/>
<defs>
<radialGradient id="paint0_radial_145_9209" cx="0" cy="0" r="1" gradientUnits="userSpaceOnUse" gradientTransform="rotate(45) scale(181.019)">
<stop stop-color="#0ECAD4"/>
<stop offset="1" stop-color="#7A45E5"/>
</radialGradient>
</defs>
</svg>
