<svg width="128" height="128" viewBox="0 0 128 128" fill="none" xmlns="http://www.w3.org/2000/svg">
<circle cx="64" cy="64" r="64" fill="url(#paint0_radial_143_8651)"/>
<path d="M90.5646 82.3314H81.2979V45.0397H106V53.7236H90.5646V60.3781H105.112V68.846H90.5646V82.3329V82.3314Z" fill="white"/>
<path opacity="0.05" d="M78.8536 66.6808H88.0385C86.6796 76.1726 78.7004 82.4498 69.0333 82.4498C58.447 82.4498 49.8279 74.5143 49.8279 63.8283C49.8058 61.3432 50.2875 58.8795 51.2438 56.5869C52.2001 54.2944 53.6111 52.2207 55.391 50.492C59.0442 46.9431 63.9481 44.987 69.0333 45.0501C78.611 45.0501 86.813 51.3759 87.9794 60.7156H78.8036C76.0448 50.136 58.8535 51.1705 58.8535 63.8283C58.8535 76.4876 76.2602 77.4201 78.8536 66.6839V66.6808Z" fill="#002447"/>
<path d="M76.9739 66.6809C75.3981 72.0209 69.7895 75.196 64.2689 73.8663C58.7452 72.5321 55.2842 67.1769 56.4308 61.7334C57.5759 56.2885 62.9176 52.7011 68.5292 53.6094C70.8281 53.9217 72.9479 55.0239 74.5275 56.7281C75.6193 57.8555 76.4386 59.2192 76.9223 60.7141H85.8297C84.6634 51.3532 76.4385 45.0501 66.8836 45.0501C61.7978 44.9853 56.8927 46.9404 53.2382 50.489C51.4571 52.2182 50.0453 54.2927 49.0887 56.5864C48.1321 58.8802 47.6506 61.3451 47.6736 63.8314C47.6736 74.5175 56.2427 82.4499 66.8866 82.4499C76.5462 82.4499 84.5026 76.1727 85.8858 66.6809H76.9724H76.9739Z" fill="white"/>
<path opacity="0.05" d="M49.2941 76.9061H36.3979L34.2898 82.3252H24.4209L39.5238 45H46.106L61.8095 82.3373H51.3901L49.291 76.9061H49.2941ZM40.0637 67.6668L39.7406 68.5096H46.0014L45.7845 67.8768L42.8695 59.8729L40.0637 67.6668Z" fill="#002447"/>
<path d="M46.8519 76.9061H33.977L31.8704 82.3252H22L37.1044 45H43.6867L59.3901 82.3373H48.9752L46.8519 76.9061ZM37.6428 67.6668L37.3213 68.5096H43.582L43.3636 67.8768L40.4501 59.8729L37.6443 67.6668H37.6428Z" fill="white"/>
<defs>
<radialGradient id="paint0_radial_143_8651" cx="0" cy="0" r="1" gradientUnits="userSpaceOnUse" gradientTransform="rotate(45) scale(181.019)">
<stop stop-color="#0ECAD4"/>
<stop offset="1" stop-color="#006BD6"/>
</radialGradient>
</defs>
</svg>
