<svg width="128" height="128" viewBox="0 0 128 128" fill="none" xmlns="http://www.w3.org/2000/svg">
<circle cx="64" cy="64" r="64" fill="url(#paint0_radial_145_8962)"/>
<path d="M101.615 67.1264C101.221 66.6506 100.459 66.7737 100.229 67.3396C99.7285 68.5372 99.1543 69.6364 98.4899 70.6043C99.384 67.274 99.7777 63.7632 99.589 60.1458C98.2766 42.7314 83.7413 29 65.9824 29C54.8267 29 44.9423 34.4302 38.8067 42.7806C38.454 43.281 38.1095 43.7896 37.7814 44.3227C35.7471 47.5956 34.3526 51.0736 33.5487 54.6254C33.4421 51.9513 33.7866 49.0721 34.5413 46.0781C34.6889 45.4957 34.1885 44.9543 33.5979 45.0528C31.0633 45.4957 28.8978 46.193 27.1998 47.1281C25.4526 48.0878 24.1894 49.31 23.525 50.7783C23.525 50.7783 23.525 50.7865 23.525 50.7947C23.4265 51.008 23.3445 51.2212 23.2789 51.4427C23.1969 51.7052 23.1312 51.9759 23.082 52.2548C23.0656 52.3368 23.0656 52.4188 23.0574 52.5009C23.0328 52.6977 23.0082 52.8864 23 53.0915C23 53.1817 23 53.2801 23 53.3786C23 53.5672 23 53.7559 23.0164 53.9528C23.0246 54.043 23.041 54.1414 23.0574 54.2399C23.082 54.4367 23.1066 54.6336 23.1476 54.8387C23.1641 54.9289 23.1969 55.0191 23.2215 55.1093C23.2707 55.3144 23.3281 55.5277 23.3937 55.741C23.4183 55.823 23.4594 55.9132 23.484 55.9952C23.5578 56.2167 23.6398 56.4382 23.7382 56.6597C23.7711 56.7335 23.8121 56.8155 23.8449 56.8893C23.9515 57.1272 24.0582 57.3569 24.1894 57.5948C24.2222 57.6604 24.2632 57.7342 24.3042 57.7999C24.4437 58.0459 24.5831 58.3002 24.739 58.5463C24.7718 58.6037 24.8128 58.6611 24.8538 58.7186C25.0261 58.981 25.1983 59.2435 25.387 59.506C25.4198 59.5552 25.4608 59.6045 25.4936 59.6537C25.6987 59.9326 25.9038 60.2115 26.1334 60.4821C26.1663 60.5232 26.1991 60.556 26.2237 60.597C26.4616 60.8841 26.7076 61.1794 26.9701 61.4665C26.9947 61.4911 27.0193 61.5239 27.044 61.5485C27.3146 61.852 27.6017 62.1555 27.897 62.459C27.9134 62.4754 27.9299 62.4918 27.9545 62.5164C28.2662 62.8281 28.5861 63.1398 28.9224 63.4515C28.9306 63.4597 28.947 63.4762 28.9552 63.4844C29.2997 63.8043 29.6606 64.1242 30.0298 64.4441C30.0298 64.4441 30.038 64.4523 30.0462 64.4605C30.4235 64.7886 30.8172 65.1085 31.2192 65.4366C31.6293 65.7647 32.0476 66.0928 32.4824 66.4209C38.9954 71.3344 48.4203 76.0674 59.3546 79.5289C61.356 80.1605 63.3329 80.7265 65.2934 81.2351C53.8505 79.6766 44.1549 77.7489 35.2385 72.5156C34.5905 72.1301 33.803 72.7699 34.0491 73.4835C38.5442 86.8212 51.1354 96.4184 65.9906 96.4184C76.9495 96.4184 86.6943 91.185 92.8464 83.0725C99.2281 82.244 103.592 80.0211 104.716 76.4529C105.593 73.6886 104.404 70.4649 101.623 67.1264H101.615ZM74.0293 64.3374C74.0293 65.9124 73.693 67.2576 73.0368 68.3896C72.3723 69.5134 71.4618 70.3829 70.297 70.9899C69.1322 71.5969 67.7952 71.9004 66.2941 71.9004C64.6207 71.9004 63.1442 71.5312 61.8728 70.7848C60.6014 70.0383 59.6171 68.9884 58.9034 67.6103C58.198 66.2405 57.8453 64.6081 57.8453 62.7215C57.8453 61.2696 58.0585 59.9736 58.4769 58.8334C58.8952 57.6932 59.494 56.7253 60.2569 55.9378C61.0197 55.1504 61.9056 54.5434 62.9228 54.125C63.9399 53.7149 65.0391 53.5016 66.2203 53.5016C67.2374 53.5016 68.1807 53.6493 69.0502 53.9446C69.9197 54.2399 70.699 54.65 71.3798 55.1914C72.0606 55.7246 72.6102 56.3644 73.045 57.1026C73.3977 57.7014 73.6438 58.3494 73.7914 59.0467C73.8406 59.301 73.6356 59.5306 73.3813 59.5306H70.3217C70.1494 59.5306 69.9935 59.4158 69.9361 59.2517C69.8213 58.94 69.6818 58.6529 69.5096 58.3986C69.2881 58.0705 69.0174 57.7916 68.6975 57.562C68.3776 57.3323 68.0167 57.1518 67.6147 57.037C67.2128 56.914 66.7617 56.8565 66.2695 56.8565C65.3508 56.8565 64.5551 57.0862 63.8661 57.5374C63.1771 57.9885 62.6357 58.6529 62.2501 59.5142C61.8646 60.3755 61.676 61.4337 61.676 62.6805C61.676 63.9273 61.8646 64.9855 62.2419 65.8632C62.6193 66.7408 63.1607 67.4053 63.8497 67.8564C64.5387 68.3158 65.359 68.5454 66.3023 68.5454C67.1554 68.5454 67.8936 68.3896 68.5006 68.0861C68.8944 67.8892 69.2389 67.6349 69.5096 67.3232C69.5588 67.2658 69.7311 67.069 69.8951 66.7901C70.3052 66.0928 70.3709 65.3628 70.3627 64.9198H66.9421C66.7124 64.9198 66.532 64.7394 66.532 64.5097V62.4836C66.532 62.2539 66.7124 62.0735 66.9421 62.0735H73.2008C73.652 62.0735 74.0211 62.4426 74.0211 62.8938V64.3292L74.0293 64.3374Z" fill="white"/>
<defs>
<radialGradient id="paint0_radial_145_8962" cx="0" cy="0" r="1" gradientUnits="userSpaceOnUse" gradientTransform="rotate(45) scale(181.019)">
<stop stop-color="#0EBCD4"/>
<stop offset="1" stop-color="#00366B"/>
</radialGradient>
</defs>
</svg>
