<svg width="128" height="128" viewBox="0 0 128 128" fill="none" xmlns="http://www.w3.org/2000/svg">
<circle cx="64" cy="64" r="64" fill="url(#paint0_radial_159_10134)"/>
<path fill-rule="evenodd" clip-rule="evenodd" d="M51.2831 75.3416H51.4059H52.6191H53.4761H66.4768H72.5499H72.8273H74.178L73.4241 76.0849L73.0999 76.4045L72.5499 76.9468L71.1771 78.3026L68.0166 81.416L66.2411 83.164L64.9616 84.4254L64.6473 84.7353L62.7294 86.6286L60.809 84.7353L60.4946 84.4254L57.6632 81.6339L57.3513 81.324L53.2821 77.3172L52.0665 76.1164L51.8553 75.9081L51.4059 75.4651L51.2831 75.3416ZM61.7765 61.5222H70.3642C71.4055 61.5222 72.2601 62.3648 72.2601 63.3913C72.2601 64.4202 71.4055 65.2628 70.3642 65.2628H64.7676H58.7879C58.2869 64.0571 57.8817 62.8102 57.5797 61.5222H61.7765ZM92.461 52.2399C92.7827 51.7315 93.4605 51.579 93.9737 51.8961C94.3494 52.131 94.5312 52.5546 94.4747 52.9638C94.455 53.1115 94.4059 53.2592 94.3175 53.3948C93.9983 53.9032 93.3205 54.0557 92.8048 53.7361C92.5199 53.5594 92.3505 53.2713 92.3087 52.9638C92.2719 52.7193 92.3186 52.4651 92.461 52.2399ZM46.5239 71.0951C46.6614 71.267 46.8063 71.434 46.9463 71.6011H26.3156H20.8958C19.8521 71.6011 19 72.4436 19 73.4726C19 74.1238 19.3438 74.6976 19.8595 75.0341C20.1591 75.2254 20.5152 75.3416 20.8958 75.3416H26.021H33.8106H37.8895H38.7491H44.7018H45.9149L46.7695 76.1841L48.157 77.5496L48.4689 77.8595L49.0582 78.4357L49.3628 78.7383L51.9855 81.324L52.2998 81.6339L54.1907 83.4981L53.2502 84.4254L52.9359 84.7353L50.318 87.3137L49.6157 88.0061L45.2568 92.3059C44.5471 93.0032 44.5274 94.1266 45.1806 94.8602C45.2052 94.8892 45.2273 94.9207 45.2568 94.9497C45.9935 95.676 47.1992 95.676 47.9384 94.9497L50.2542 92.6643L51.7031 91.2383L54.9815 88.0061L56.87 86.1419L58.7633 88.0061L61.3124 90.5192C61.7004 90.9017 62.2186 91.076 62.7294 91.0567C63.2401 91.076 63.7583 90.9017 64.1463 90.5192L66.6954 88.0061L68.5863 86.1419L70.4772 88.0061L77.5227 94.9497C78.257 95.676 79.4677 95.676 80.2019 94.9497C80.9411 94.2234 80.9411 93.0323 80.2019 92.3059L72.5499 84.7619L71.2704 83.4981L72.5499 82.2344L74.9835 79.8327L79.5413 75.3416H80.4622H83.0359V77.4043L83.0334 81.1134L83.0309 95.923V97.8889C85.6119 97.8889 88.0677 97.2788 90.2975 96.1796C90.3048 96.1748 90.3122 96.1724 90.3196 96.1675V95.9157C90.322 95.3371 90.3245 94.0564 90.3269 92.4052C90.3368 88.1441 90.3515 81.4015 90.3515 77.8183C90.3515 72.0175 94.8799 67.0326 101.53 65.5024C101.535 62.6262 101.54 59.7912 101.545 57.5444H101.55H105C105 55.9369 103.47 54.6295 101.55 54.5593C101.493 54.5569 101.442 54.552 101.385 54.552C101.373 54.552 101.363 54.552 101.353 54.552C101.235 54.0024 101.068 53.4698 100.857 52.9614C99.4746 49.6058 96.1618 47.2404 92.2915 47.2404C88.4213 47.2404 85.1085 49.6082 83.7259 52.9662C83.5712 53.3391 83.4509 53.7264 83.3477 54.1211V52.9662L83.3526 31C71.1403 31 60.8654 38.8733 57.8473 49.5646H66.0913C67.1349 49.5646 67.9871 50.4072 67.9871 51.4337C67.9871 52.4626 67.1349 53.3028 66.0913 53.3028H57.1082C57.0247 54.0242 56.978 54.753 56.9633 55.489H72.4172C73.4609 55.489 74.3155 56.3315 74.3155 57.3604C74.3155 58.3894 73.4609 59.2295 72.4172 59.2295H59.9445H57.1622C57.0247 58.1909 56.9461 57.1353 56.9461 56.0603C56.9461 55.8715 56.9584 55.6851 56.9608 55.4986L56.9559 55.489L55.2074 53.3028L52.2163 49.5646L47.8304 44.081C45.2076 46.1195 43.4051 48.8383 42.4327 51.8864C40.5024 57.91 41.8212 65.2168 46.5239 71.0951Z" fill="white"/>
<defs>
<radialGradient id="paint0_radial_159_10134" cx="0" cy="0" r="1" gradientUnits="userSpaceOnUse" gradientTransform="rotate(45) scale(181.019)">
<stop stop-color="#0ECAD4"/>
<stop offset="1" stop-color="#006BD6"/>
</radialGradient>
</defs>
</svg>
